Results
version=1
nRows=4
nColumns=49
inDegrees=yes
endheader
time	/jointset/bb/crank_angle/value	/jointset/bb/crank_angle/speed	/jointset/spindle/pedal_angle_r/value	/jointset/spindle/pedal_angle_r/speed	/jointset/ground_pelvis/pelvis_tilt/value	/jointset/ground_pelvis/pelvis_tilt/speed	/jointset/ground_pelvis/pelvis_list/value	/jointset/ground_pelvis/pelvis_list/speed	/jointset/ground_pelvis/pelvis_rotation/value	/jointset/ground_pelvis/pelvis_rotation/speed	/jointset/ground_pelvis/pelvis_tx/value	/jointset/ground_pelvis/pelvis_tx/speed	/jointset/ground_pelvis/pelvis_ty/value	/jointset/ground_pelvis/pelvis_ty/speed	/jointset/ground_pelvis/pelvis_tz/value	/jointset/ground_pelvis/pelvis_tz/speed	/jointset/hip_r/hip_angle_r/value	/jointset/hip_r/hip_angle_r/speed	/jointset/hip_r/hip_adduction_r/value	/jointset/hip_r/hip_adduction_r/speed	/jointset/hip_r/hip_rotation_r/value	/jointset/hip_r/hip_rotation_r/speed	/jointset/knee_r/knee_angle_r/value	/jointset/knee_r/knee_angle_r/speed	/jointset/knee_r/tib_tx_r/value	/jointset/knee_r/tib_tx_r/speed	/jointset/knee_r/tib_ty_r/value	/jointset/knee_r/tib_ty_r/speed	/jointset/tib_pat_r/pat_angle_r/value	/jointset/tib_pat_r/pat_angle_r/speed	/jointset/tib_pat_r/pat_tx_r/value	/jointset/tib_pat_r/pat_tx_r/speed	/jointset/tib_pat_r/pat_ty_r/value	/jointset/tib_pat_r/pat_ty_r/speed	/jointset/ankle_r/ankle_angle_r/value	/jointset/ankle_r/ankle_angle_r/speed	/jointset/subtalar_r/subtalar_angle_r/value	/jointset/subtalar_r/subtalar_angle_r/speed	/jointset/mtp_r/mtp_angle_r/value	/jointset/mtp_r/mtp_angle_r/speed	/forceset/bifemlh_r/activation	/forceset/bifemlh_r/fiber_length	/forceset/bifemsh_r/activation	/forceset/bifemsh_r/fiber_length	/forceset/glut_max2_r/activation	/forceset/glut_max2_r/fiber_length	/forceset/vas_int_r/activation	/forceset/vas_int_r/fiber_length
      3.76177478	  -1089.59406855	    -32.93875094	   1085.42014542	     41.53104468	      0.00000000	      0.00000000	      0.00000000	      0.00000000	      0.00000000	      0.00000000	     -0.10000000	      0.00000000	     -0.10000000	      0.00000000	      0.00000000	      0.00000000	     88.37229588	      2.65127885	      4.01627688	      0.09177386	     -4.50392976	      1.14681830	   -121.79364785	      9.86941649	     -0.00443452	      0.00373354	     -0.49660299	      0.00310381	     17.64849732	      0.00839170	      0.01852158	      0.00505707	     -0.02475938	      0.00082429	     30.00432880	     -4.03838151	      0.00000000	     -0.00000000	     -0.00000000	     -0.00000000	      0.05000000	      0.10000000	      0.05000000	      0.10000000	      0.05000000	      0.10000000	      0.05000000	      0.10000000
      3.80130021	  -1090.74188157	    -25.94551973	   1086.86557136	     32.63214330	      0.00000000	      0.00000000	      0.00000000	      0.00000000	      0.00000000	      0.00000000	     -0.10000000	      0.00000000	     -0.10000000	      0.00000000	      0.00000000	     -0.00000000	     88.45891633	      1.82778451	      4.01953841	      0.07515132	     -4.46353714	      0.92257237	   -121.44476992	      7.99722559	     -0.00430254	      0.00302530	     -0.49649327	      0.00251503	     17.64879396	      0.00679982	      0.01870035	      0.00409776	     -0.02473024	      0.00066792	     29.86257674	     -3.22653942	      0.00000000	     -0.00000000	     -0.00000000	     -0.00000000	      0.05000000	      0.10000000	      0.05000000	      0.10000000	      0.05000000	      0.10000000	      0.05000000	      0.10000000
      3.84082564	  -1091.70289050	    -23.36710872	   1088.07297854	     29.32740839	      0.00000000	      0.00000000	      0.00000000	      0.00000000	      0.00000000	      0.00000000	     -0.10000000	      0.00000000	     -0.10000000	     -0.00000000	      0.00000000	     -0.00000000	     88.52255835	      1.44881460	      4.02236605	      0.06982124	     -4.42907773	      0.84477903	   -121.14514084	      7.36804533	     -0.00418919	      0.00278729	     -0.49639904	      0.00231716	     17.64904873	      0.00626485	      0.01885388	      0.00377537	     -0.02470522	      0.00061537	     29.74241640	     -2.93702703	     -0.00000000	     -0.00000000	     -0.00000000	     -0.00000000	      0.05000000	      0.10000000	      0.05000000	      0.10000000	      0.05000000	      0.10000000	      0.05000000	      0.10000000
      3.89676706	  -1093.06300345	    -26.64509885	   1089.77746347	     33.34112182	      0.00000000	      0.00000000	      0.00000000	      0.00000000	      0.00000000	     -0.00000000	     -0.10000000	     -0.00000000	     -0.10000000	     -0.00000000	      0.00000000	     -0.00000000	     88.59875014	      1.33239470	      4.02651713	      0.08302238	     -4.37935700	      0.98462520	   -120.70956586	      8.66394898	     -0.00402442	      0.00327752	     -0.49626206	      0.00272470	     17.64941909	      0.00736672	      0.01907706	      0.00443939	     -0.02466884	      0.00072361	     29.57029640	     -3.39367996	      0.00000000	      0.00000000	     -0.00000000	     -0.00000000	      0.05000000	      0.10000000	      0.05000000	      0.10000000	      0.05000000	      0.10000000	      0.05000000	      0.10000000
